Coordinates
version=1
nRows=4
nColumns=107
inDegrees=yes

Units are S.I. units (second, meters, Newtons, ...)
If the header above contains a line with 'inDegrees', this indicates whether rotational values are in degrees (yes) or radians (no).

endheader
time	sternoclavicular_r2	sternoclavicular_r3	unrotscap_r3	unrotscap_r2	acromioclavicular_r2	acromioclavicular_r3	acromioclavicular_r1	unrothum_r1	unrothum_r3	unrothum_r2	elv_angle	shoulder_elv	shoulder1_r2	shoulder_rot	elbow_flexion	pro_sup	deviation	flexion	proximal_distal_r1	proximal_distal_r3	cmc_flexion	cmc_abduction	mp_flexion	ip_flexion	mcp2_flexion	mcp2_abduction	pm2_flexion	md2_flexion	mcp3_flexion	mcp3_abduction	pm3_flexion	md3_flexion	mcp4_flexion	mcp4_abduction	pm4_flexion	md4_flexion	mcp5_flexion	mcp5_abduction	pm5_flexion	md5_flexion	bicpt_tx	bicpt_ty	bicpt_tz	bicpt2_tx	bicpt2_ty	bicpt2_tz	ptpt_tx	ptpt_ty	ptpt_tz	FCUpt_tx	FCUpt_ty	FCUpt_tz	EDCpt_tx	EDCpt_ty	EDCpt_tz	APLpt_tx	APLpt_ty	APLpt_tz	FPLpt_tx	FPLpt_ty	FPLpt_tz	FPLpt2_tx	FPLpt2_ty	FPLpt2_tz	PEC1pt2_tx	PEC1pt2_ty	PEC1pt2_tz	PEC1pt3_tx	PEC1pt3_ty	PEC1pt3_tz	PEC2pt2_tx	PEC2pt2_ty	PEC2pt2_tz	PEC2pt3_tx	PEC2pt3_ty	PEC2pt3_tz	PEC3pt2_tx	PEC3pt2_ty	PEC3pt2_tz	PEC3pt3_tx	PEC3pt3_ty	PEC3pt3_tz	DELT2pt2a_tx	DELT2pt2a_ty	DELT2pt2a_tz	DELT2pt2_tx	DELT2pt2_ty	DELT2pt2_tz	LAT1pt2_tx	LAT1pt2_ty	LAT1pt2_tz	LAT1pt3_tx	LAT1pt3_ty	LAT1pt3_tz	LAT2pt2_tx	LAT2pt2_ty	LAT2pt2_tz	LAT2pt3_tx	LAT2pt3_ty	LAT2pt3_tz	LAT3pt2_tx	LAT3pt2_ty	LAT3pt2_tz	LAT3pt3_tx	LAT3pt3_ty	LAT3pt3_tz
      1.16666667	     -0.32581768	      0.13800099	     -0.13800099	      0.32581768	     -0.06597145	      0.53315808	      0.23965089	     -0.23965089	     -0.53315808	      0.06597145	     98.92235136	     77.14023291	     -1.72652074	    -19.02292694	     26.64851507	     13.84613431	     -0.02315691	     -0.27427709	     -0.03186589	     -0.13713855	     15.49455239	      8.37818430	      4.28239260	     12.40271874	     20.01389295	     13.96414985	      4.79217866	    -30.21709141	    -10.21360962	      4.80071127	      5.54720004	      9.65926060	    -29.44724623	     -5.71449148	     -4.92270518	     21.41389966	    -49.33327806	    -14.38461618	     -4.08130027	      5.11139454	      0.00078145	     -0.03065433	     -0.00479197	      0.01574311	     -0.01743920	     -0.00978246	      0.00652693	     -0.06556154	     -0.00116538	      0.00525266	     -0.18394201	      0.00005681	     -0.00166153	      0.00042189	      0.00014882	      0.00021763	      0.00008705	      0.00043525	      0.00027856	      0.00083568	      0.00047007	      0.00002267	     -0.00025399	     -0.00030478	      0.00252849	      0.00887113	      0.00617122	     -0.00827115	      0.01997077	     -0.01894223	      0.00252849	      0.00887113	      0.00617122	      0.00055712	      0.01851367	     -0.00972825	      0.00398461	      0.00493313	      0.01605658	      0.00000000	      0.00795958	      0.00000000	     -0.00724262	     -0.03347032	     -0.00656403	      0.01320605	     -0.00040212	     -0.00296660	     -0.00089997	      0.01508521	     -0.00617122	      0.00248563	      0.02177071	     -0.01799940	     -0.00604266	      0.01307099	     -0.00552839	     -0.01259958	      0.02759908	     -0.03089897	     -0.02365636	      0.01461380	     -0.00741404	     -0.01568519	      0.03188466	     -0.03861300
      1.20000000	     -0.32594361	      0.13805433	     -0.13805433	      0.32594361	     -0.06599695	      0.53336415	      0.23974351	     -0.23974351	     -0.53336415	      0.06599695	     98.93094909	     77.17004781	     -1.72667079	    -19.17881840	     26.64934140	     14.33358717	     -0.02878675	     -0.25557658	     -0.03974580	     -0.12778829	     16.39901484	      7.13961828	      4.52683735	      9.39884447	     18.67717272	     13.98574550	      4.64785588	    -31.30806561	    -11.99475521	      4.77288355	      5.78180324	     11.91288693	    -30.22161000	     -5.88491149	     -6.00129890	     23.85061804	    -49.58854079	    -14.39927438	     -4.05417591	      5.13169555	      0.00078148	     -0.03065442	     -0.00479199	      0.01577293	     -0.01743942	     -0.00974814	      0.00649091	     -0.06558483	     -0.00120465	      0.00529783	     -0.18393546	      0.00004383	     -0.00172003	      0.00043782	      0.00015217	      0.00020679	      0.00008272	      0.00041358	      0.00026469	      0.00079408	      0.00044667	      0.00002058	     -0.00026058	     -0.00031269	      0.00252946	      0.00887456	      0.00617361	     -0.00827435	      0.01997848	     -0.01894955	      0.00252946	      0.00887456	      0.00617361	      0.00055734	      0.01852083	     -0.00973201	      0.00398573	      0.00493503	      0.01605927	      0.00000000	      0.00796577	      0.00000000	     -0.00724542	     -0.03348325	     -0.00656917	      0.01329788	     -0.00040685	     -0.00301847	     -0.00090032	      0.01509104	     -0.00617361	      0.00248659	      0.02177912	     -0.01800636	     -0.00604499	      0.01307605	     -0.00553052	     -0.01260445	      0.02760975	     -0.03091092	     -0.02366550	      0.01461945	     -0.00741691	     -0.01569126	      0.03189698	     -0.03862793
      1.23333333	     -0.32344369	      0.13699548	     -0.13699548	      0.32344369	     -0.06549077	      0.52927334	      0.23790473	     -0.23790473	     -0.52927334	      0.06549077	     99.47224982	     76.57816799	     -1.73611827	    -22.02413113	     26.65245938	     16.43773850	     -0.03961289	     -0.27806124	     -0.05504431	     -0.13903062	     15.58887339	      7.31419353	      6.46770299	     10.46470024	     19.58401082	     13.96029521	      5.07602293	    -32.40872259	    -10.69477845	      4.71790942	      5.16723214	     10.00391638	    -29.35417559	     -5.54494140	     -5.70848660	     22.87171436	    -49.13007401	    -14.38384798	     -3.68075536	      5.11354435	      0.00078158	     -0.03065478	     -0.00479204	      0.01589534	     -0.01744027	     -0.00959613	      0.00633544	     -0.06568536	     -0.00137415	      0.00549369	     -0.18390639	     -0.00001011	     -0.00197252	      0.00050743	      0.00016513	      0.00021975	      0.00008790	      0.00043950	      0.00028128	      0.00084384	      0.00047466	      0.00002245	     -0.00025472	     -0.00030566	      0.00251006	      0.00880650	      0.00612626	     -0.00821089	      0.01982525	     -0.01880421	      0.00251006	      0.00880650	      0.00612626	      0.00055307	      0.01837878	     -0.00965737	      0.00396347	      0.00489718	      0.01600549	      0.00000000	      0.00784318	      0.00000000	     -0.00718985	     -0.03322644	     -0.00646742	      0.01491689	     -0.00049490	     -0.00403270	     -0.00089341	      0.01497530	     -0.00612626	      0.00246752	      0.02161208	     -0.01786825	     -0.00599863	      0.01297576	     -0.00548811	     -0.01250778	      0.02739799	     -0.03067384	     -0.02348399	      0.01450732	     -0.00736002	     -0.01557091	      0.03165234	     -0.03833166
      1.26666667	     -0.32338833	      0.13697203	     -0.13697203	      0.32338833	     -0.06547956	      0.52918276	      0.23786401	     -0.23786401	     -0.52918276	      0.06547956	     99.44632500	     76.56506202	     -1.73566580	    -22.03297226	     26.62904643	     16.43412523	     -0.03957817	     -0.27805951	     -0.05499528	     -0.13902975	     15.58901392	      7.31406428	      6.46719620	     10.46495497	     19.58110319	     13.95905953	      5.07548907	    -32.40867494	    -10.69670384	      4.71598121	      5.16722569	     10.00372487	    -29.35219260	     -5.54489200	     -5.70787189	     22.87144585	    -49.12894822	    -14.38352590	     -3.68050454	      5.11358117	      0.00078081	     -0.03065210	     -0.00479161	      0.01589513	     -0.01743391	     -0.00959640	      0.00633570	     -0.06568518	     -0.00137386	      0.00549336	     -0.18390644	     -0.00001002	     -0.00197209	      0.00050731	      0.00016511	      0.00021974	      0.00008790	      0.00043949	      0.00028127	      0.00084382	      0.00047465	      0.00002245	     -0.00025472	     -0.00030566	      0.00250963	      0.00880499	      0.00612521	     -0.00820948	      0.01982186	     -0.01880099	      0.00250963	      0.00880499	      0.00612521	      0.00055297	      0.01837563	     -0.00965571	      0.00396298	      0.00489634	      0.01600429	      0.00000000	      0.00784048	      0.00000000	     -0.00718861	     -0.03322076	     -0.00646517	      0.01492175	     -0.00049518	     -0.00403605	     -0.00089326	      0.01497274	     -0.00612521	      0.00246710	      0.02160838	     -0.01786520	     -0.00599760	      0.01297354	     -0.00548717	     -0.01250564	      0.02739330	     -0.03066859	     -0.02347997	      0.01450484	     -0.00735876	     -0.01556824	      0.03164692	     -0.03832510
